<?xml version="1.0" encoding="utf-8"?>
<!-- Generator: Adobe Illustrator 26.3.1, SVG Export Plug-In . SVG Version: 6.00 Build 0)  -->
<svg version="1.1" id="Layer_1" xmlns="http://www.w3.org/2000/svg" xmlns:xlink="http://www.w3.org/1999/xlink" x="0px" y="0px"
	 viewBox="0 0 500 345.7" style="enable-background:new 0 0 500 345.7;" xml:space="preserve">
<g>
	<path d="M495.5,67.6c-12.6,0.9-12.8,63.4-16.2,76.9c-0.8,6.3-1.6,12.6-2.4,19c-0.4,2.2,1.4,2.6,3.1,2.9
		c-8.7,8.9-36.4,17.7-35.6-2.6c-5.2,10-18.1,14.7-28.3,9.7c-9.2-4.6-11-16.3-10.7-25.7c0.5-16.1,11-31.1,26.6-35.6
		c6.3-1.8,13.4-4.2,19.8-1.5c1.2-8.3,1.7-16.6,3.3-24.8C457,70,483.5,53.1,495.5,67.6z M449.2,120.5c-0.7-2.4,0.7-7.4-2.6-8.4
		c-1.4-0.2-2.3,0.6-2.9,1.7c-3.7,9.4-3.2,20-4.8,29.8c0,3.6-4.3,23.7,3.8,18.4c4.1-6.9,3-15.8,4.5-23.5
		C447.9,132.7,448.5,126.7,449.2,120.5L449.2,120.5z"/>
</g>
<path d="M157.4,124c7.8-12.9,27.8-20.4,36.5-4.4c13.9,28.4-11.7,60.1-42.1,55.8c-23.4-0.3-31-17.6-27.8-38.7
	c1.9-16.9,4.6-33.7,6-50.5c0.2-3.7-3.6-2.1-6.1-1.8c2.7-4.9,6.8-8.8,11.3-12.1c9.3-6.9,27-4.3,26.4,9.9c-0.8,14-3.9,27.8-4.6,41.8
	H157.4z M153.1,163.9c-0.8,4.7,1.6,15.1,5.5,5.7c3-11.9,3.2-24.3,4.8-36.4c0.1-3.6,1.3-7.5-0.5-10.8
	C153.7,124.6,154.7,155.2,153.1,163.9L153.1,163.9z"/>
<g>
	<path d="M7.5,113.3c11.4-0.8,22.9-1.1,34.5-1.8c-1.8,17.3-5.1,34.5-6.1,51.7c9.8-7.9,8.4-29.3,11.3-41.3c0.2-3.1,1.5-6.7-2-8.4
		c0.9-0.6,31.3-2.2,34.7-2c-0.4,4.2-0.9,8.3-1.3,12.5l0.3,0.1c2.9-3.5,5.6-7.2,9.3-9.8c8.6-6.6,27.3-6,27.8,7.5
		c-0.5,13.1-3.1,26.1-4.5,39.1c-0.7,2.7-0.5,4.6,2.7,4.8c-15.2,14.1-40.5,15.7-33.8-12.3c1.4-9.1,2.8-18.2,4.2-27.3
		c0.4-3.6-4.1,0-5.3,0.8c-17.5,14.2-32.3,31.7-50.4,45c-9.6,6.5-26.6,2.3-24.3-11.9c1.1-9.4,2.4-18.9,3.6-28.3
		c0.6-4.9,1.1-9.8,1.8-14.6c0.4-2-1.2-2.7-2.6-3.6L7.5,113.3z"/>
</g>
<path d="M290.2,113.4c11.4-0.9,22.9-1.1,34.5-1.8c-1.8,17.3-5,34.5-6.1,51.7c9.7-7.6,8.5-29.5,11.3-41.2c-0.1-2.5,1.6-6.1-1-7.6
	c-0.4-0.2-0.7-0.6-0.9-1c11.5-1,23.1-1.1,34.7-1.8c-0.5,4.3-0.9,8.4-1.4,12.6l0.3,0.1c2.7-2.9,5.1-6.1,8-8.7
	c8.3-8,28.9-7.6,29.1,6.8c-0.6,13.6-3.2,27.1-4.8,40.6c-0.5,2.4,1.1,2.6,3,3.1c-15.5,13.9-40.4,15.7-33.8-12.3
	c1.4-9.1,2.8-18.2,4.2-27.3c0.5-3.7-4.1,0-5.3,0.9c-17.4,14.2-32.2,31.6-50.3,45c-9.6,6.5-26.6,2.3-24.3-11.8
	c1.1-9.5,2.4-19,3.6-28.4c0.6-4.8,1.1-9.7,1.7-14.5c0.5-2.1-1.3-2.7-2.6-3.7C290.2,113.7,290.2,113.5,290.2,113.4z"/>
<g>
	<path d="M238.9,177c-23.7,1-44.2-23.3-30.9-45.5c10.8-19.5,37.7-27.3,57.2-16.7c8.5,4.6,13.9,11.6,15.4,21.3
		C284,159.6,260.4,176.9,238.9,177z M248.9,120c-0.4-2.4,0-11.9-4.7-7.8c-5.7,14.4-4.9,31-7.3,46.3c0.2,3.3-3.1,20.3,3.5,16.5
		c2.6-3,2.8-7.4,3.5-11.1C245.9,149.2,247.3,135.2,248.9,120z"/>
</g>
<g>
	<g>
		<g transform="translate(84.012883, 293.500073)">
			<g>
				<path d="M62.1-63.6c-1.3-1.5-3.3-2.2-5.6-2.2c-14.9,0-21.8,10.9-21.8,18c0,6.8,2,10.4,4.1,13.9c2.3,4.1,4.6,8.4,4.6,20.5
					c0,1.3-2.8,10.9-14.2,10.9c-2.3,0-2.8-0.8-3-1.3c-0.8-1.3-0.8-4.8,2.3-10.4c0.8-1.3,0.2-3-1.3-3.5c-1.3-0.8-2.8-0.3-3.5,1
					C20.2-10.1,19.4-4.5,21.4-1c1.3,1.8,3.3,4.1,7.9,4.1c13.9,0,19.8-11.9,19.8-16.5c0-13.4-3-19-5.6-23.3c-1.8-3-3-5.6-3-11.1
					c0-5.1,5.1-12.4,16.2-12.4c1.8,0,1.8,0.5,2,1c0.5,4.6-5.8,13.7-8.1,14.4c-1.3,0-2.5,1.3-2.5,2.8s1.3,2.8,2.8,2.8
					c5.6,0,13.4-12.4,13.4-19.2C64.1-61.3,63.1-62.8,62.1-63.6z"/>
			</g>
		</g>
	</g>
	<g>
		<g transform="translate(105.482433, 293.500073)">
			<g>
				<path d="M152.8-87.4c-0.8,0-0.8,0-68.7,5.1c-4.8,0.3-9.9,0.8-15.2,1c1.4-2.3,2.5-4.1,3.2-5.1c1.5-2.3,3-4.5,4.5-6.8
					c1.2-1.9,2.5-3.8,3.7-5.6c1-1.5,2-3.1,3.1-4.6c0.8-1.2,1.6-2.4,2.4-3.6c0.6-0.9,1.2-1.8,1.9-2.7c0.3-0.3,0.6-0.8,0.8-1.2
					c0.3-0.4,0.5-0.8,0.8-1.2c0.6-0.8,1.2-1.6,1.7-2.4c0.3-0.6,0.6-1.3,0.5-1.9c-0.1-0.9-0.9-1.6-1.7-1.8c-0.9-0.2-1.8,0-2.5,0.5
					c-1.5,0.9-2.3,2.5-3.2,3.9c-0.5,0.8-1,1.5-1.5,2.3c-1.6,2.5-3.2,4.9-4.8,7.4c-0.9,1.4-1.8,2.7-2.7,4.1
					c-4.2,6.5-8.5,12.9-12.7,19.3C15.5-77.2-36.7-73.4-41-73.4c-1.5,0-2.5,1.3-2.5,2.8s1,2.8,2.5,2.8c3,0,25.1-1.5,54-3.8
					c0.3,0.3,0.5,0.3,1,0.3c13.4,0,31.7,2,34.2,4.6c2.5,2.5-2.5,14.2-8.6,23.3c-0.8,1.3-0.5,2.8,0.5,3.5
					C26.2-11.4,28.9-6.3,30.2-4.3c1,2,3,3.3,5.3,3.3c14.4,0,40.8-30.4,43.8-33.7c1-1.3,0.8-2.8-0.2-3.8c-1.3-1-3-1-3.8,0.2
					c-0.2,0-7.1,8.1-15.7,16C45.2-8.6,38.3-6.6,35.5-6.6C35-6.6,35-6.8,35-6.8c-2.8-4.6,8.1-30.9,30.7-68.7c6.3-0.5,12.7-1,19-1.5
					c33.4-2.5,65.1-4.8,67.4-4.8c1.3,0,2.3-1,2.8-2.3C155.1-85.4,154.3-86.9,152.8-87.4z M54-66.4c-0.3-1.8-1-3.3-2-4.6
					c-1.3-1.3-4.1-2.3-7.1-3c4.6-0.2,9.4-0.8,14.2-1C57.6-72.5,55.8-69.4,54-66.4z"/>
			</g>
		</g>
	</g>
	<g>
		<g transform="translate(131.891882, 293.500073)">
			<g>
				<path d="M107.8-39.1c-1.3-1-3-0.8-3.8,0.5c-6.6,8.1-19.3,21-26.1,21.8c-0.5-2.8,2.5-11.1,6.3-19.2c0.8-1.3,0.2-2.8-1-3.5
					c-1-0.8-2.5-0.5-3.5,0.8c-5.6,6.8-22.3,24.6-31.9,24.6c-0.8,0-0.8,0-0.8-0.3c-2-3.5,5.8-21.3,14.4-35.5c0.8-1.4,0.5-2.9-0.7-3.6
					c-1.5-1-3-0.5-3.8,0.8c-4.8,7.6-19.3,32.7-14.7,41c1,2,3,3,5.6,3c8.1,0,18.2-8.1,25.8-15.5c-1.8,6.6-1,9.4-0.3,10.6
					c0.8,1.3,2.3,2,4.1,2c11.7,0,28.9-21.3,30.9-23.8C109.1-36.3,109.1-38.1,107.8-39.1z"/>
			</g>
		</g>
	</g>
	<g>
		<g transform="translate(175.590972, 293.500073)">
			<g>
				<path d="M178.1-138c-0.8-0.8-1.5-1.3-2.5-1.3c-1.5,0-6.3,0-21.5,19.2c-9.9,12.4-20.8,28.9-30.7,45.9c-3.3,5.8-7.1,12.4-10.9,20
					c-2.8,3.5-5.6,6.6-8.4,9.6c-0.2-2.5-0.8-4.8-2.5-6.8c-2.3-3-6.6-4.8-12.4-4.8c-19.5,0-39.3,26.8-39.3,41.8
					c0,3.3,0.8,6.1,2.8,8.1C54.7-4,57.8-3,61.6-3c5.1,0,15.2-5.1,34.7-24.8c0,1.3,1.3,2,2.5,2c0.2,0,0.5,0,0.8,0
					C90.2-3.3,82.9,21.8,82.9,44.4c0,1.5,1,2.8,2.5,2.8s2.8-1.3,2.8-2.8c0-31.4,15.2-68.4,28.9-95.3c3.8-4.6,7.9-9.4,12.4-14.7
					c19.8-24.3,49.1-63.3,49.1-70.4C178.6-137,178.4-137.8,178.1-138z M98.1-38C78.1-16.7,66.4-8.4,61.6-8.4c-2.3,0-3.8-0.8-4.8-1.8
					s-1.5-2.3-1.5-4.3c0-12.6,17.9-36.1,33.9-36.1c4.1,0,6.8,0.8,8.1,2.5C99.1-45.6,98.8-41.8,98.1-38z M102.6-32.9
					c0-0.8,0.3-1.5,0.5-2.3c0.2-0.3,0.5-0.5,0.8-1C103.4-35.2,102.9-33.9,102.6-32.9z M131-76.5c16.5-27.6,31.4-46.1,39.3-53.4
					C164.4-120.1,150-100,131-76.5z"/>
			</g>
		</g>
	</g>
	<g>
		<g transform="translate(218.340088, 293.500073)">
			<g>
				<path d="M110-34.6c-1-1-2.8-1-3.8,0c-9.1,9.4-26.3,24.1-33.9,24.1c-0.3,0-0.3,0-0.3,0c-1.8-2.8,5.1-18.2,14.7-33.4
					c0.8-1.3,0.2-3-1-3.8c-1.3-0.8-2.8-0.5-3.8,0.8c0,0.2-4.6,7.6-8.9,16c-7.9,15.7-7.3,20.8-5.8,23.3c1,1.8,2.8,2.8,5.1,2.8
					c12.4,0,35.2-23.1,37.7-25.8C111.2-31.8,111.2-33.5,110-34.6z M88.7-50.3c2,0,3.8-1.8,3.8-3.8c0-2-1.8-3.8-3.8-3.8
					s-3.8,1.8-3.8,3.8S86.7-50.3,88.7-50.3z"/>
			</g>
		</g>
	</g>
	<g>
		<g transform="translate(246.079512, 293.500073)">
			<g>
				<path d="M130.3-39.2c-1-1-2.8-1-3.8,0.3c-0.2,0-8.9,9.1-18.2,11.4c4.6-7.1,7.6-14.7,7.6-20.3c0-2.8-0.8-5.1-2.3-6.6
					c-1.8-2-4.1-2.8-7.1-2.8c-5.1,0-9.4,2.3-12.7,6.6c-1.8,2.3-3,5.3-3.5,8.6c-0.8-0.5-1.8-1-3.3-1c-3.5,0-7.9,6.1-10.6,10.9
					c-1.8,3.3-5.8,11.4-5.8,18c0,5.6,2.8,8.6,7.9,8.6c8.6,0,18.2-7.1,25.3-16c0.2,0,0.2,0,0.2,0c13.2,0,25.8-13.2,26.6-13.7
					C131.6-36.5,131.3-38.2,130.3-39.2z M78.4-10.9c-1.8,0-2-0.8-2.3-1.8c-1.3-5.8,5.3-18.2,9.4-23.3c0.2,0.8,0.5,1.3,1.3,1.5
					c1,0.8,2.3,0.5,3-0.3c0.8,5.6,3.5,9.9,7.8,11.9C91.8-16.2,84.7-10.9,78.4-10.9z M101.4-27.3c-4.6-1.3-6.3-5.8-6.3-10.1
					c0-7.1,4.3-14.4,11.4-14.4c1.5,0,2.5,0.3,3,1c0.8,0.8,0.8,2,0.8,3C110.3-42.5,106.8-34.7,101.4-27.3z"/>
			</g>
		</g>
	</g>
	<g>
		<g transform="translate(284.078712, 293.500073)">
			<g>
				<path d="M114.4-61.7c-1.3-1.5-3.3-2.3-5.6-2.3C93.9-64,87-53.1,87-46c0,6.8,2,10.4,4.1,13.9c2.3,4.1,4.6,8.4,4.6,20.5
					c0,1.3-2.8,10.9-14.2,10.9c-2.3,0-2.8-0.8-3-1.3c-0.8-1.3-0.8-4.8,2.3-10.4c0.8-1.3,0.2-3-1.3-3.5c-1.3-0.8-2.8-0.3-3.5,1
					c-3.5,6.6-4.3,12.2-2.3,15.7C75,2.6,77,4.9,81.6,4.9c13.9,0,19.8-11.9,19.8-16.5c0-13.4-3-19-5.6-23.3c-1.8-3-3-5.6-3-11.1
					c0-5.1,5.1-12.4,16.2-12.4c1.8,0,1.8,0.5,2,1c0.5,4.6-5.8,13.7-8.1,14.4c-1.3,0-2.5,1.3-2.5,2.8s1.3,2.8,2.8,2.8
					c5.6,0,13.4-12.4,13.4-19.3C116.5-59.4,115.4-60.9,114.4-61.7z"/>
			</g>
		</g>
	</g>
</g>
</svg>
