<svg id="Layer_1" data-name="Layer 1" xmlns="https://www.w3.org/2000/svg" viewBox="0 0 822.41 186.5">
  <defs>
    <style>
      .cls-1 {
        fill: #000000;
      }
    </style>
  </defs>
  <path d="M491.11,33.76c-12.6.9-12.8,63.4-16.2,76.9-.8,6.3-1.6,12.6-2.4,19-.4,2.2,1.4,2.6,3.1,2.9-8.7,8.9-36.4,17.7-35.6-2.6-5.2,10-18.1,14.7-28.3,9.7-9.2-4.6-11-16.3-10.7-25.7.5-16.1,11-31.1,26.6-35.6,6.3-1.8,13.4-4.2,19.8-1.5,1.2-8.3,1.7-16.6,3.3-24.8C452.61,36.16,479.11,19.26,491.11,33.76Zm-46.3,52.9c-.7-2.4.7-7.4-2.6-8.4a2.75,2.75,0,0,0-2.9,1.7c-3.7,9.4-3.2,20-4.8,29.8,0,3.6-4.3,23.7,3.8,18.4,4.1-6.9,3-15.8,4.5-23.5.7-5.8,1.3-11.8,2-18Z"/>
  <path d="M153,90.16c7.8-12.9,27.8-20.4,36.5-4.4,13.9,28.4-11.7,60.1-42.1,55.8-23.4-.3-31-17.6-27.8-38.7,1.9-16.9,4.6-33.7,6-50.5.2-3.7-3.6-2.1-6.1-1.8a38.4,38.4,0,0,1,11.3-12.1c9.3-6.9,27-4.3,26.4,9.9-.8,14-3.9,27.8-4.6,41.8Zm-4.3,39.9c-.8,4.7,1.6,15.1,5.5,5.7,3-11.9,3.2-24.3,4.8-36.4.1-3.6,1.3-7.5-.5-10.8-9.2,2.2-8.2,32.8-9.8,41.5Z"/>
  <path d="M3.11,79.46c11.4-.8,22.9-1.1,34.5-1.8-1.8,17.3-5.1,34.5-6.1,51.7,9.8-7.9,8.4-29.3,11.3-41.3.2-3.1,1.5-6.7-2-8.4.9-.6,31.3-2.2,34.7-2-.4,4.2-.9,8.3-1.3,12.5l.3.1c2.9-3.5,5.6-7.2,9.3-9.8,8.6-6.6,27.3-6,27.8,7.5-.5,13.1-3.1,26.1-4.5,39.1-.7,2.7-.5,4.6,2.7,4.8-15.2,14.1-40.5,15.7-33.8-12.3l4.2-27.3c.4-3.6-4.1,0-5.3.8-17.5,14.2-32.3,31.7-50.4,45-9.6,6.5-26.6,2.3-24.3-11.9,1.1-9.4,2.4-18.9,3.6-28.3.6-4.9,1.1-9.8,1.8-14.6.4-2-1.2-2.7-2.6-3.6Z"/>
  <path d="M285.81,79.56c11.4-.9,22.9-1.1,34.5-1.8-1.8,17.3-5,34.5-6.1,51.7,9.7-7.6,8.5-29.5,11.3-41.2-.1-2.5,1.6-6.1-1-7.6a2.19,2.19,0,0,1-.9-1c11.5-1,23.1-1.1,34.7-1.8-.5,4.3-.9,8.4-1.4,12.6l.3.1c2.7-2.9,5.1-6.1,8-8.7,8.3-8,28.9-7.6,29.1,6.8-.6,13.6-3.2,27.1-4.8,40.6-.5,2.4,1.1,2.6,3,3.1-15.5,13.9-40.4,15.7-33.8-12.3l4.2-27.3c.5-3.7-4.1,0-5.3.9-17.4,14.2-32.2,31.6-50.3,45-9.6,6.5-26.6,2.3-24.3-11.8,1.1-9.5,2.4-19,3.6-28.4.6-4.8,1.1-9.7,1.7-14.5.5-2.1-1.3-2.7-2.6-3.7A2.64,2.64,0,0,0,285.81,79.56Z"/>
  <path d="M234.51,143.16c-23.7,1-44.2-23.3-30.9-45.5,10.8-19.5,37.7-27.3,57.2-16.7,8.5,4.6,13.9,11.6,15.4,21.3C279.61,125.76,256,143.06,234.51,143.16Zm10-57c-.4-2.4,0-11.9-4.7-7.8-5.7,14.4-4.9,31-7.3,46.3.2,3.3-3.1,20.3,3.5,16.5,2.6-3,2.8-7.4,3.5-11.1C241.51,115.36,242.91,101.36,244.51,86.16Z"/>
  <path d="M566.53,75.7a7.17,7.17,0,0,0-5.6-2.2c-14.9,0-21.8,10.9-21.8,18a23.9,23.9,0,0,0,4.1,13.9c2.3,4.1,4.6,8.4,4.6,20.5,0,1.3-2.8,10.9-14.2,10.9-2.3,0-2.8-.8-3-1.3-.8-1.3-.8-4.8,2.3-10.4a2.36,2.36,0,0,0-1.3-3.5,2.43,2.43,0,0,0-3.5,1c-3.5,6.6-4.3,12.2-2.3,15.7a8.82,8.82,0,0,0,7.9,4.1c13.9,0,19.8-11.9,19.8-16.5,0-13.4-3-19-5.6-23.3a18.61,18.61,0,0,1-3-11.1c0-5.1,5.1-12.4,16.2-12.4,1.8,0,1.8.5,2,1,.5,4.6-5.8,13.7-8.1,14.4a2.75,2.75,0,0,0-2.5,2.8,2.86,2.86,0,0,0,2.8,2.8c5.6,0,13.4-12.4,13.4-19.2C568.53,78,567.53,76.5,566.53,75.7Z"/>
  <path d="M678.7,51.9c-.8,0-.8,0-68.7,5.1-4.8.3-9.9.8-15.2,1,1.4-2.3,2.5-4.1,3.2-5.1,1.5-2.3,3-4.5,4.5-6.8,1.2-1.9,2.5-3.8,3.7-5.6,1-1.5,2-3.1,3.1-4.6l2.4-3.6c.6-.9,1.2-1.8,1.9-2.7a5,5,0,0,0,.8-1.2c.3-.4.5-.8.8-1.2.6-.8,1.2-1.6,1.7-2.4a3.39,3.39,0,0,0,.5-1.9,2.25,2.25,0,0,0-1.7-1.8,3.12,3.12,0,0,0-2.5.5c-1.5.9-2.3,2.5-3.2,3.9-.5.8-1,1.5-1.5,2.3-1.6,2.5-3.2,4.9-4.8,7.4-.9,1.4-1.8,2.7-2.7,4.1-4.2,6.5-8.5,12.9-12.7,19.3-46.9,3.5-99.1,7.3-103.4,7.3a2.82,2.82,0,0,0,0,5.6c3,0,25.1-1.5,54-3.8.3.3.5.3,1,.3,13.4,0,31.7,2,34.2,4.6s-2.5,14.2-8.6,23.3a2.57,2.57,0,0,0,.5,3.5c-13.9,28.5-11.2,33.6-9.9,35.6a5.9,5.9,0,0,0,5.3,3.3c14.4,0,40.8-30.4,43.8-33.7a2.77,2.77,0,0,0-.2-3.8c-1.3-1-3-1-3.8.2-.2,0-7.1,8.1-15.7,16-14.4,13.7-21.3,15.7-24.1,15.7-.5,0-.5-.2-.5-.2-2.8-4.6,8.1-30.9,30.7-68.7l19-1.5c33.4-2.5,65.1-4.8,67.4-4.8a3.17,3.17,0,0,0,2.8-2.3A3.08,3.08,0,0,0,678.7,51.9Zm-98.8,21a10.12,10.12,0,0,0-2-4.6c-1.3-1.3-4.1-2.3-7.1-3,4.6-.2,9.4-.8,14.2-1C583.5,66.8,581.7,69.9,579.9,72.9Z"/>
  <path d="M660.11,100.2a2.53,2.53,0,0,0-3.8.5c-6.6,8.1-19.3,21-26.1,21.8-.5-2.8,2.5-11.1,6.3-19.2a2.51,2.51,0,0,0-1-3.5c-1-.8-2.5-.5-3.5.8-5.6,6.8-22.3,24.6-31.9,24.6-.8,0-.8,0-.8-.3-2-3.5,5.8-21.3,14.4-35.5a2.65,2.65,0,1,0-4.5-2.8c-4.8,7.6-19.3,32.7-14.7,41,1,2,3,3,5.6,3,8.1,0,18.2-8.1,25.8-15.5-1.8,6.6-1,9.4-.3,10.6a4.61,4.61,0,0,0,4.1,2c11.7,0,28.9-21.3,30.9-23.8A2.63,2.63,0,0,0,660.11,100.2Z"/>
  <path d="M774.11,1.3a3.44,3.44,0,0,0-2.5-1.3c-1.5,0-6.3,0-21.5,19.2-9.9,12.4-20.8,28.9-30.7,45.9-3.3,5.8-7.1,12.4-10.9,20-2.8,3.5-5.6,6.6-8.4,9.6a11.37,11.37,0,0,0-2.5-6.8c-2.3-3-6.6-4.8-12.4-4.8-19.5,0-39.3,26.8-39.3,41.8,0,3.3.8,6.1,2.8,8.1,2,2.3,5.1,3.3,8.9,3.3,5.1,0,15.2-5.1,34.7-24.8a2.27,2.27,0,0,0,2.5,2h.8c-9.4,22.5-16.7,47.6-16.7,70.2a2.61,2.61,0,0,0,2.5,2.8,2.86,2.86,0,0,0,2.8-2.8c0-31.4,15.2-68.4,28.9-95.3,3.8-4.6,7.9-9.4,12.4-14.7,19.8-24.3,49.1-63.3,49.1-70.4A2.83,2.83,0,0,0,774.11,1.3Zm-80,100c-20,21.3-31.7,29.6-36.5,29.6a6.46,6.46,0,0,1-4.8-1.8,5.62,5.62,0,0,1-1.5-4.3c0-12.6,17.9-36.1,33.9-36.1,4.1,0,6.8.8,8.1,2.5C695.11,93.7,694.81,97.5,694.11,101.3Zm4.5,5.1a9.48,9.48,0,0,1,.5-2.3,11.49,11.49,0,0,0,.8-1A22.56,22.56,0,0,0,698.61,106.4ZM727,62.8c16.5-27.6,31.4-46.1,39.3-53.4C760.41,19.2,746,39.3,727,62.8Z"/>
  <path d="M748.76,104.7a2.78,2.78,0,0,0-3.8,0c-9.1,9.4-26.3,24.1-33.9,24.1h-.3c-1.8-2.8,5.1-18.2,14.7-33.4a2.88,2.88,0,0,0-1-3.8,2.77,2.77,0,0,0-3.8.8c0,.2-4.6,7.6-8.9,16-7.9,15.7-7.3,20.8-5.8,23.3a5.53,5.53,0,0,0,5.1,2.8c12.4,0,35.2-23.1,37.7-25.8A2.67,2.67,0,0,0,748.76,104.7ZM727.46,89a3.8,3.8,0,1,0-3.8-3.8A3.93,3.93,0,0,0,727.46,89Z"/>
  <path d="M796.79,100.1a2.54,2.54,0,0,0-3.8.3c-.2,0-8.9,9.1-18.2,11.4,4.6-7.1,7.6-14.7,7.6-20.3a9.12,9.12,0,0,0-2.3-6.6c-1.8-2-4.1-2.8-7.1-2.8-5.1,0-9.4,2.3-12.7,6.6a18.45,18.45,0,0,0-3.5,8.6,5.87,5.87,0,0,0-3.3-1c-3.5,0-7.9,6.1-10.6,10.9-1.8,3.3-5.8,11.4-5.8,18,0,5.6,2.8,8.6,7.9,8.6,8.6,0,18.2-7.1,25.3-16h.2c13.2,0,25.8-13.2,26.6-13.7A3,3,0,0,0,796.79,100.1Zm-51.9,28.3c-1.8,0-2-.8-2.3-1.8-1.3-5.8,5.3-18.2,9.4-23.3a1.71,1.71,0,0,0,1.3,1.5,2.17,2.17,0,0,0,3-.3c.8,5.6,3.5,9.9,7.8,11.9C758.29,123.1,751.19,128.4,744.89,128.4Zm23-16.4c-4.6-1.3-6.3-5.8-6.3-10.1,0-7.1,4.3-14.4,11.4-14.4,1.5,0,2.5.3,3,1a4.05,4.05,0,0,1,.8,3C776.79,96.8,773.29,104.6,767.89,112Z"/>
  <path d="M818.89,73.37a7.23,7.23,0,0,0-5.6-2.3c-14.9,0-21.8,10.9-21.8,18a23.9,23.9,0,0,0,4.1,13.9c2.3,4.1,4.6,8.4,4.6,20.5,0,1.3-2.8,10.9-14.2,10.9-2.3,0-2.8-.8-3-1.3-.8-1.3-.8-4.8,2.3-10.4a2.36,2.36,0,0,0-1.3-3.5,2.43,2.43,0,0,0-3.5,1c-3.5,6.6-4.3,12.2-2.3,15.7a8.82,8.82,0,0,0,7.9,4.1c13.9,0,19.8-11.9,19.8-16.5,0-13.4-3-19-5.6-23.3a18.61,18.61,0,0,1-3-11.1c0-5.1,5.1-12.4,16.2-12.4,1.8,0,1.8.5,2,1,.5,4.6-5.8,13.7-8.1,14.4a2.75,2.75,0,0,0-2.5,2.8,2.86,2.86,0,0,0,2.8,2.8c5.6,0,13.4-12.4,13.4-19.3A6.36,6.36,0,0,0,818.89,73.37Z"/>
  <line class="cls-1" x1="451.9" y1="142.33" x2="822.41" y2="140.06"/>
</svg>
