<?xml version="1.0" encoding="utf-8"?>
<!-- Generator: Adobe Illustrator 26.3.1, SVG Export Plug-In . SVG Version: 6.00 Build 0)  -->
<svg version="1.1" id="Layer_1" xmlns="http://www.w3.org/2000/svg" xmlns:xlink="http://www.w3.org/1999/xlink" x="0px" y="0px"
	 viewBox="0 0 301 176" style="enable-background:new 0 0 301 176;" xml:space="preserve">
<style type="text/css">
	.st0{fill:#FFFFFF;}
</style>
<path class="st0" d="M7.9,7.8C38.8,5.5,69.7,4.7,101,3l-2.8,22.8C93.4,63.2,88.7,100.6,84,138c0,1.3,0.2,2.6,0.6,3.9
	c1.3-0.6,3.1-0.9,3.8-1.9c3-4,5.7-8.3,8-12.9c5.3-12.5,8.8-25.7,10.3-39.1c2.8-18.9,5.7-37.9,8.4-56.9c0.6-4.1,0.7-8.4,1.1-12.6
	c0.3-1.6,0.1-3.2-0.6-4.6c-0.7-1.4-1.8-2.6-3.3-3.3c-0.9-0.6-1.7-1.3-2.5-2c2.4-1.5,84.6-6,93.7-5.3l-3.6,33.6l0.9,0.4
	c0.9-0.9,1.7-1.8,2.4-2.8c6.3-8.9,14-16.8,22.8-23.4c16.9-11.8,35.5-13.8,54.7-7.5C292.9,7,301.3,18.4,301,31.2c0,9-0.6,18-2,26.8
	c-3.2,26.1-6.8,52.2-10.2,78.2c-0.2,1.7-0.6,3.4-0.8,5.1c-0.6,4.4,0.7,6.2,5.1,7.1l3.1,0.7c-0.2,0.5-0.5,1-0.9,1.5
	c-14.6,11.1-30.2,20.6-48.5,24.2c-6.1,1.2-12.3,1.4-18.4,0.6c-14.7-2-23.9-13.1-25.6-29c-1.1-10.3,0.8-20.3,2.3-30.3l11.1-73.1
	c0.6-4-1-5.3-4.5-3.6c-3.5,1.5-6.7,3.5-9.7,5.9c-14.9,13-29.8,26-44.3,39.3c-24,22-47.3,44.4-71.2,66.3
	c-6.4,5.7-13.3,10.9-20.6,15.4c-11.5,7.2-25.3,9.6-38.6,6.9c-19-3.5-29.5-18.4-26.9-38.8c3.1-25.3,6.5-50.6,9.6-76
	c1.6-13.1,3-26.2,4.7-39.3c0.8-3.1-0.8-6.4-3.8-7.6C9.8,10.7,8.8,10,7.8,9.2L7.9,7.8z"/>
</svg>
